<svg version="1.1" id="Layer_1" xmlns="http://www.w3.org/2000/svg" x="0px" y="0px"
	 width="24px" height="24px" viewBox="0 0 24 24" enable-background="new 0 0 24 24" xml:space="preserve">
<path fill="none" d="M0,0h24v24H0V0z"/>
<path fill="#ffffff" d="M19.65,12.976c0.039-0.313,0.064-0.638,0.064-0.976c0-0.337-0.025-0.662-0.079-0.975l2.174-1.65
	c0.192-0.15,0.245-0.425,0.13-0.637l-2.058-3.463c-0.13-0.226-0.399-0.301-0.63-0.226l-2.559,1c-0.54-0.399-1.106-0.725-1.737-0.975
	l-0.385-2.65C14.532,2.175,14.313,2,14.058,2H9.942C9.686,2,9.479,2.175,9.441,2.425l-0.386,2.65
	C8.426,5.325,7.847,5.663,7.319,6.05l-2.558-1c-0.232-0.087-0.502,0-0.63,0.226L2.074,8.738C1.945,8.963,1.997,9.225,2.202,9.375
	l2.173,1.65c-0.052,0.313-0.09,0.65-0.09,0.975c0,0.325,0.026,0.662,0.077,0.976l-2.173,1.65c-0.192,0.149-0.245,0.424-0.128,0.636
	l2.057,3.463c0.129,0.228,0.398,0.301,0.63,0.228l2.559-1.002c0.54,0.4,1.105,0.726,1.736,0.975l0.385,2.651
	C9.479,21.824,9.686,22,9.942,22h4.115c0.256,0,0.475-0.176,0.5-0.424l0.386-2.651c0.63-0.249,1.21-0.588,1.737-0.975l2.558,1.002
	c0.232,0.085,0.502,0,0.631-0.228l2.058-3.463c0.128-0.224,0.075-0.486-0.13-0.636L19.65,12.976z M12,15.75
	c-2.122,0-3.857-1.688-3.857-3.75S9.878,8.25,12,8.25c2.122,0,3.857,1.688,3.857,3.75S14.122,15.75,12,15.75z"/>
</svg>
